<?xml version="1.0" standalone="no"?>
<svg version="1.0" xmlns="http://www.w3.org/2000/svg"
 width="128" height="128" viewBox="0 0 128 128"
 fill="#68217a">
  <g transform="translate(0,128) scale(0.1,-0.1)" stroke="none">
    <path d="M162 1268c-17-17-15-43 9-99 18-41 20-53 10-77-9-20-9-36-1-56 5-15 10-45 10-67 0-33 7-48 43-86 41-44 42-48 44-117 0-39 2-76 2-83 1-7 15-25 33-42 17-16 36-44 42-62 8-23 25-41 56-59l44-26-3-54-3-53 85-81c47-45 108-116 136-159 61-91 106-124 187-137 130-22 221-7 257 42 19 25 19 29 4 51-8 13-40 36-70 50-70 33-92 57-107 115-10 41-26 76-85 190-14 27-15 38-6 55 7 12 21 38 32 57 11 20 19 54 19 81 0 77-39 137-190 292-76 78-163 172-194 209-67 79-88 93-116 78-22-12-24-18-21-72 4-60-28-51-85 25-72 96-102 115-132 85zm92-96c24-33 76-87 114-120 38-34 72-71 75-82 3-11 3-20 0-20-10 0-129 96-170 136-39 39-83 110-83 134 0 23 21 7 64-48zm241-54c32-39 120-135 195-212 142-146 158-168 171-224 9-39-6-101-27-109-29-11-43 16-42 81 0 34-5 73-12 86-23 45-84 101-205 187-125 89-175 131-175 145 0 19 27 4 98-57 41-36 80-65 85-65 6 0-21 33-60 73-69 71-84 91-103 141-18 48 14 29 75-46zm-229-70c101-77 214-182 214-199 0-10-4-19-8-19-13 0-218 167-241 196-19 25-20 44-2 44 5 0 21-10 37-22zm81-159c52-39 103-79 114-90 22-22 26-59 6-59-17 0-199 150-221 181-43 62-9 51 101-32zm239 0c109-75 129-92 161-147 35-60 28-106-28-179-24-30-45-50-47-44-2 6 8 27 23 47 70 91 43 165-95 267-91 66-139 117-112 117 5 0 48-27 98-61zm32-99c40-28 72-52 72-54 0-3 3-11 6-20 14-37-76-1-141 55-35 31-47 69-22 69 8 0 46-23 85-50zm-265-1c53-28 159-114 144-117-38-8-196 95-182 118 8 13 11 13 38-1zm249-79c45-22 89-47 97-55 14-13 12-15-14-15-55 1-175 71-175 102 0 12 2 11 92-32zm-164-46c94-47 112-64 67-64-57 0-195 71-195 101 0 19 38 8 128-37zm195-40c57-29 63-49 12-41-45 7-105 44-105 63 0 18 23 13 93-22zm-144-59c38-13 54-35 25-35-33 0-94 23-111 43-18 19-17 19 17 12 19-4 50-13 69-20zm132-5c22-13 25-36 5-43-15-6-66 28-66 44 0 12 37 12 61-1z"/>
  </g>
</svg>
